<svg width="24" height="26" viewBox="0 0 24 26" fill="none" xmlns="http://www.w3.org/2000/svg">
<path d="M0.949219 16.8674C1.41607 17.5244 2.0778 18.1297 2.89844 18.6614C2.79958 18.8674 2.76964 19.0334 2.76953 19.1428C2.76971 19.4873 3.06949 20.3895 4.86719 21.3577C6.55995 22.2691 9.07744 22.9124 12 22.9124C14.9225 22.9123 17.4401 22.2691 19.1328 21.3577C20.9303 20.3896 21.2293 19.4872 21.2295 19.1428C21.2294 19.0335 21.1982 18.8682 21.0996 18.6624C21.9206 18.1307 22.5827 17.5254 23.0498 16.8684C23.5522 17.5752 23.8299 18.341 23.8301 19.1428L23.8262 19.3069C23.6643 22.7489 18.4314 25.5129 12 25.5129L11.3916 25.5042C5.24157 25.3364 0.330611 22.6398 0.173828 19.3069L0.169922 19.1428C0.170056 18.3409 0.446719 17.5743 0.949219 16.8674ZM23.0498 10.4983C23.5521 11.2051 23.8301 11.9708 23.8301 12.7727L23.8262 12.9368C23.6641 16.3787 18.4313 19.1428 12 19.1428L11.3916 19.134C5.2417 18.9663 0.330796 16.2696 0.173828 12.9368L0.169922 12.7727C0.169922 11.971 0.447113 11.205 0.949219 10.4983C1.41607 11.1549 2.07812 11.7599 2.89844 12.2913C2.79963 12.4974 2.76953 12.6634 2.76953 12.7727C2.76983 13.1173 3.06966 14.0196 4.86719 14.9875C6.55995 15.899 9.07751 16.5422 12 16.5422C14.9225 16.5422 17.4401 15.899 19.1328 14.9875C20.9302 14.0196 21.2292 13.1173 21.2295 12.7727C21.2295 12.6634 21.1993 12.4974 21.1006 12.2913C21.921 11.7599 22.5829 11.1549 23.0498 10.4983ZM12.6084 0.495361C18.8592 0.665887 23.8301 3.4495 23.8301 6.85767L23.8262 7.02173C23.6644 10.4639 18.4316 13.2278 12 13.2278L11.3916 13.219C5.24145 13.0513 0.330428 10.3547 0.173828 7.02173L0.169922 6.85767C0.169922 3.33961 5.46647 0.487549 12 0.487549L12.6084 0.495361ZM12 3.08716C9.07738 3.08716 6.55995 3.73134 4.86719 4.64282C3.06887 5.61125 2.76953 6.51346 2.76953 6.85767C2.7696 7.20197 3.06898 8.10417 4.86719 9.07251C6.55995 9.984 9.07738 10.6272 12 10.6272C14.9226 10.6272 17.4401 9.98399 19.1328 9.07251C20.9309 8.10419 21.2294 7.20196 21.2295 6.85767C21.2295 6.51346 20.931 5.61123 19.1328 4.64282C17.4401 3.73134 14.9226 3.08717 12 3.08716Z" fill="white"/>
</svg>
